<svg xmlns="http://www.w3.org/2000/svg" viewBox="0 0 220 220">
  <defs>
    <path id="arcTop" d="M 28 90 A 82 82 0 0 1 192 90" />
    <radialGradient id="treeGrad" cx="40%" cy="30%" r="70%">
      <stop offset="0%" stop-color="#FFC273"/>
      <stop offset="55%" stop-color="#F2761F"/>
      <stop offset="100%" stop-color="#C9460B"/>
    </radialGradient>
  </defs>

  <circle cx="110" cy="110" r="104" fill="#FFFFFF" stroke="#20242E" stroke-width="3"/>
  <circle cx="110" cy="110" r="90" fill="none" stroke="#20242E" stroke-width="1.4"/>

  <text font-family="Arial,Helvetica,sans-serif" font-size="11.5" font-weight="700" letter-spacing="1.5" fill="#20242E">
    <textPath href="#arcTop" startOffset="2">ACTIONS LOCALES • IMPACT GLOBAL</textPath>
  </text>

  <g transform="translate(110,96)">
    <rect x="-2.5" y="2" width="5" height="26" fill="#5B3A20"/>
    <circle cx="-16" cy="-6" r="15" fill="url(#treeGrad)"/>
    <circle cx="14" cy="-8" r="16" fill="url(#treeGrad)"/>
    <circle cx="0" cy="-22" r="16" fill="url(#treeGrad)"/>
    <circle cx="-8" cy="6" r="13" fill="url(#treeGrad)"/>
    <circle cx="10" cy="8" r="12" fill="url(#treeGrad)"/>
  </g>

  <g transform="translate(110,148)">
    <polygon points="-95,-15 95,-15 95,17 -95,17 -110,1" fill="#20242E"/>
    <polygon points="-95,-15 95,-15 95,17 -95,17 -80,1" fill="#20242E"/>
    <text x="0" y="8" text-anchor="middle" font-family="Arial,Helvetica,sans-serif" font-size="22" font-weight="800" fill="#FFFFFF">DIASPO<tspan fill="#F2761F">'</tspan>ACTIF</text>
  </g>

  <text x="110" y="178" text-anchor="middle" font-family="Arial,Helvetica,sans-serif" font-size="10.5" font-weight="600" letter-spacing="2" fill="#20242E">DU SUD AU NORD</text>

  <circle cx="178" cy="178" r="17" fill="#FFFFFF" stroke="#20242E" stroke-width="2.5"/>
  <text x="178" y="183" text-anchor="middle" font-family="Arial,Helvetica,sans-serif" font-size="14" fill="#F2761F">🌍</text>
</svg>
